<mxfile host="app.diagrams.net" modified="2021-07-02T00:48:20.099Z" agent="5.0 (Macintosh; Intel Mac OS X 10_15_7) AppleWebKit/605.1.15 (KHTML, like Gecko) Version/14.1.1 Safari/605.1.15" etag="bRE02_n8_IddPRH5MrHd" version="14.8.3" type="github">
  <diagram id="_6_i3_dyC2sQ74DqaxW7" name="Page-1">
    <mxGraphModel dx="946" dy="645" grid="1" gridSize="10" guides="1" tooltips="1" connect="1" arrows="1" fold="1" page="1" pageScale="1" pageWidth="827" pageHeight="1169" math="0" shadow="0">
      <root>
        <mxCell id="0" />
        <mxCell id="1" parent="0" />
        <mxCell id="QefDzYtXKN9kydE7Moo0-8" style="edgeStyle=orthogonalEdgeStyle;rounded=0;orthogonalLoop=1;jettySize=auto;html=1;" edge="1" parent="1" source="QefDzYtXKN9kydE7Moo0-3">
          <mxGeometry relative="1" as="geometry">
            <mxPoint x="620" y="495" as="targetPoint" />
            <Array as="points">
              <mxPoint x="710" y="204" />
              <mxPoint x="710" y="495" />
              <mxPoint x="620" y="495" />
            </Array>
          </mxGeometry>
        </mxCell>
        <mxCell id="QefDzYtXKN9kydE7Moo0-9" value="签发电子证书" style="edgeLabel;html=1;align=center;verticalAlign=middle;resizable=0;points=[];" vertex="1" connectable="0" parent="QefDzYtXKN9kydE7Moo0-8">
          <mxGeometry x="-0.2299" y="-1" relative="1" as="geometry">
            <mxPoint x="11" y="-67" as="offset" />
          </mxGeometry>
        </mxCell>
        <mxCell id="QefDzYtXKN9kydE7Moo0-20" style="edgeStyle=orthogonalEdgeStyle;rounded=0;orthogonalLoop=1;jettySize=auto;html=1;entryX=0.5;entryY=0;entryDx=0;entryDy=0;" edge="1" parent="1" source="QefDzYtXKN9kydE7Moo0-3" target="QefDzYtXKN9kydE7Moo0-14">
          <mxGeometry relative="1" as="geometry" />
        </mxCell>
        <mxCell id="QefDzYtXKN9kydE7Moo0-22" value="签发机构的公钥已经被嵌入到浏览器或者操作系统中" style="edgeLabel;html=1;align=center;verticalAlign=middle;resizable=0;points=[];" vertex="1" connectable="0" parent="QefDzYtXKN9kydE7Moo0-20">
          <mxGeometry x="-0.5118" y="1" relative="1" as="geometry">
            <mxPoint as="offset" />
          </mxGeometry>
        </mxCell>
        <mxCell id="QefDzYtXKN9kydE7Moo0-3" value="电子证书签发机构CA" style="aspect=fixed;perimeter=ellipsePerimeter;html=1;align=center;shadow=0;dashed=0;spacingTop=3;image;image=img/lib/active_directory/home.svg;" vertex="1" parent="1">
          <mxGeometry x="530" y="138.2" width="135" height="130.95" as="geometry" />
        </mxCell>
        <mxCell id="QefDzYtXKN9kydE7Moo0-4" value="公钥" style="aspect=fixed;perimeter=ellipsePerimeter;html=1;align=center;shadow=0;dashed=0;spacingTop=3;image;image=img/lib/active_directory/key.svg;" vertex="1" parent="1">
          <mxGeometry x="572.5" y="353" width="50" height="37" as="geometry" />
        </mxCell>
        <mxCell id="QefDzYtXKN9kydE7Moo0-13" style="edgeStyle=orthogonalEdgeStyle;rounded=0;orthogonalLoop=1;jettySize=auto;html=1;exitX=0.5;exitY=0;exitDx=0;exitDy=0;entryX=0.5;entryY=1;entryDx=0;entryDy=0;" edge="1" parent="1" source="QefDzYtXKN9kydE7Moo0-5" target="QefDzYtXKN9kydE7Moo0-3">
          <mxGeometry relative="1" as="geometry" />
        </mxCell>
        <mxCell id="QefDzYtXKN9kydE7Moo0-15" style="edgeStyle=orthogonalEdgeStyle;rounded=0;orthogonalLoop=1;jettySize=auto;html=1;entryX=1;entryY=0.5;entryDx=0;entryDy=0;" edge="1" parent="1" source="QefDzYtXKN9kydE7Moo0-5" target="QefDzYtXKN9kydE7Moo0-14">
          <mxGeometry relative="1" as="geometry" />
        </mxCell>
        <mxCell id="QefDzYtXKN9kydE7Moo0-16" value="电子证书" style="edgeLabel;html=1;align=center;verticalAlign=middle;resizable=0;points=[];" vertex="1" connectable="0" parent="QefDzYtXKN9kydE7Moo0-15">
          <mxGeometry x="0.0282" y="2" relative="1" as="geometry">
            <mxPoint as="offset" />
          </mxGeometry>
        </mxCell>
        <mxCell id="QefDzYtXKN9kydE7Moo0-5" value="服务器" style="aspect=fixed;perimeter=ellipsePerimeter;html=1;align=center;shadow=0;dashed=0;spacingTop=3;image;image=img/lib/active_directory/server_farm.svg;" vertex="1" parent="1">
          <mxGeometry x="572.5" y="470" width="50" height="50" as="geometry" />
        </mxCell>
        <mxCell id="QefDzYtXKN9kydE7Moo0-10" value="" style="aspect=fixed;perimeter=ellipsePerimeter;html=1;align=center;shadow=0;dashed=0;spacingTop=3;image;image=img/lib/active_directory/documents.svg;" vertex="1" parent="1">
          <mxGeometry x="300" y="470" width="33" height="50" as="geometry" />
        </mxCell>
        <mxCell id="QefDzYtXKN9kydE7Moo0-14" value="客户端" style="aspect=fixed;perimeter=ellipsePerimeter;html=1;align=center;shadow=0;dashed=0;spacingTop=3;image;image=img/lib/active_directory/workstation_client.svg;" vertex="1" parent="1">
          <mxGeometry x="140" y="470" width="42.5" height="50" as="geometry" />
        </mxCell>
        <mxCell id="QefDzYtXKN9kydE7Moo0-17" value="" style="aspect=fixed;perimeter=ellipsePerimeter;html=1;align=center;shadow=0;dashed=0;spacingTop=3;image;image=img/lib/active_directory/documents.svg;" vertex="1" parent="1">
          <mxGeometry x="700" y="320" width="33" height="50" as="geometry" />
        </mxCell>
        <mxCell id="QefDzYtXKN9kydE7Moo0-21" value="" style="aspect=fixed;perimeter=ellipsePerimeter;html=1;align=center;shadow=0;dashed=0;spacingTop=3;image;image=img/lib/active_directory/key.svg;" vertex="1" parent="1">
          <mxGeometry x="200" y="185.18" width="50" height="37" as="geometry" />
        </mxCell>
        <mxCell id="QefDzYtXKN9kydE7Moo0-30" value="" style="edgeStyle=orthogonalEdgeStyle;rounded=0;orthogonalLoop=1;jettySize=auto;html=1;curved=1;" edge="1" parent="1" source="QefDzYtXKN9kydE7Moo0-29" target="QefDzYtXKN9kydE7Moo0-14">
          <mxGeometry relative="1" as="geometry" />
        </mxCell>
        <mxCell id="QefDzYtXKN9kydE7Moo0-29" value="客户端用CA机构的公钥解密电子证书获得服务器的公钥" style="shape=note;whiteSpace=wrap;html=1;backgroundOutline=1;darkOpacity=0.05;fillColor=#fff2cc;strokeColor=#d6b656;" vertex="1" parent="1">
          <mxGeometry x="20" y="380" width="80" height="100" as="geometry" />
        </mxCell>
        <mxCell id="QefDzYtXKN9kydE7Moo0-32" style="edgeStyle=orthogonalEdgeStyle;curved=1;rounded=0;orthogonalLoop=1;jettySize=auto;html=1;entryX=0.75;entryY=0;entryDx=0;entryDy=0;" edge="1" parent="1" source="QefDzYtXKN9kydE7Moo0-31" target="QefDzYtXKN9kydE7Moo0-3">
          <mxGeometry relative="1" as="geometry" />
        </mxCell>
        <mxCell id="QefDzYtXKN9kydE7Moo0-31" value="签发机构用私钥加密服务器的公钥" style="shape=note;whiteSpace=wrap;html=1;backgroundOutline=1;darkOpacity=0.05;fillColor=#fff2cc;strokeColor=#d6b656;" vertex="1" parent="1">
          <mxGeometry x="542.5" y="-1.4210854715202004e-14" width="80" height="100" as="geometry" />
        </mxCell>
      </root>
    </mxGraphModel>
  </diagram>
</mxfile>
